<?xml version="1.0" encoding="UTF-8" standalone="no"?>
<svg
   xmlns:dc="http://purl.org/dc/elements/1.1/"
   xmlns:cc="http://creativecommons.org/ns#"
   xmlns:rdf="http://www.w3.org/1999/02/22-rdf-syntax-ns#"
   xmlns:svg="http://www.w3.org/2000/svg"
   xmlns="http://www.w3.org/2000/svg"
   xml:space="preserve"
   id="svg2"
   height="25"
   width="45"
   version="1.1"><metadata
     id="metadata15"><rdf:RDF><cc:Work
         rdf:about=""><dc:format>image/svg+xml</dc:format><dc:type
           rdf:resource="http://purl.org/dc/dcmitype/StillImage" /><dc:title></dc:title></cc:Work></rdf:RDF></metadata><defs
     id="defs6"><clipPath
       id="clipPath18"><path
         id="path20"
         d="M 0,38 38,38 38,0 0,0 0,38 Z" /></clipPath></defs><g
     id="g12"
     transform="matrix(1.25,0,0,-1.25,-1.25,31.25)"><g
       id="g14"><g
         id="g16"
         clip-path="url(#clipPath18)"><g
           id="g22"
           transform="translate(28,29)" /><g
           id="g26"
           transform="translate(32,15)"><path
             style="fill:#8899a6;fill-opacity:1;fill-rule:nonzero;stroke:none"
             id="path28"
             d="M 0,0 C -0.467,0 -0.91,-0.085 -1.339,-0.204 -1.123,0.322 -1,0.896 -1,1.5 -1,3.985 -3.015,6 -5.5,6 -6.519,6 -7.447,5.649 -8.201,5.079 -8.907,7.904 -11.456,10 -14.5,10 -17.338,10 -19.745,8.178 -20.631,5.643 -21.379,5.875 -22.175,6 -23,6 c -4.418,0 -8,-3.582 -8,-8 0,-4.419 3.582,-8 8,-8 l 23,0 c 2.762,0 5,2.238 5,5 0,2.762 -2.238,5 -5,5" /></g></g></g></g></svg>