<?xml version="1.0" encoding="UTF-8" standalone="no"?>
<svg
   xmlns:dc="http://purl.org/dc/elements/1.1/"
   xmlns:cc="http://creativecommons.org/ns#"
   xmlns:rdf="http://www.w3.org/1999/02/22-rdf-syntax-ns#"
   xmlns:svg="http://www.w3.org/2000/svg"
   xmlns="http://www.w3.org/2000/svg"
   xml:space="preserve"
   id="svg2"
   height="47.5"
   width="47.5"
   version="1.1"><metadata
     id="metadata29"><rdf:RDF><cc:Work
         rdf:about=""><dc:format>image/svg+xml</dc:format><dc:type
           rdf:resource="http://purl.org/dc/dcmitype/StillImage" /><dc:title></dc:title></cc:Work></rdf:RDF></metadata><defs
     id="defs6"><clipPath
       id="clipPath18"><path
         id="path20"
         d="M 0,38 38,38 38,0 0,0 0,38 z" /></clipPath></defs><g
     id="g12"
     transform="matrix(1.25,0,0,-1.25,0,47.5)"><g
       id="g14"><g
         id="g16"
         clip-path="url(#clipPath18)"><g
           id="g22"
           transform="translate(17,35)"><path
             style="fill:#ffac33;fill-opacity:1;fill-rule:nonzero;stroke:none"
             id="path24"
             d="M 0,0 C 0,0 0,2 2,2 4,2 4,0 4,0 l 0,-2 c 0,0 0,-2 -2,-2 -2,0 -2,2 -2,2 l 0,2 z" /></g><g
           id="g26"
           transform="translate(35,21)"><path
             style="fill:#ffac33;fill-opacity:1;fill-rule:nonzero;stroke:none"
             id="path28"
             d="M 0,0 C 0,0 2,0 2,-2 2,-4 0,-4 0,-4 l -2,0 c 0,0 -2,0 -2,2 0,2 2,2 2,2 l 2,0 z" /></g><g
           id="g30"
           transform="translate(5,21)"><path
             style="fill:#ffac33;fill-opacity:1;fill-rule:nonzero;stroke:none"
             id="path32"
             d="M 0,0 C 0,0 2,0 2,-2 2,-4 0,-4 0,-4 l -2,0 c 0,0 -2,0 -2,2 0,2 2,2 2,2 l 2,0 z" /></g><g
           id="g34"
           transform="translate(10.1211,29.7065)"><path
             style="fill:#ffac33;fill-opacity:1;fill-rule:nonzero;stroke:none"
             id="path36"
             d="m 0,0 c 0,0 1.414,-1.414 0,-2.828 -1.414,-1.414 -2.828,0 -2.828,0 l -1.415,1.414 c 0,0 -1.414,1.414 0,2.829 1.415,1.414 2.829,0 2.829,0 L 0,0 z" /></g><g
           id="g38"
           transform="translate(31.1211,8.707)"><path
             style="fill:#ffac33;fill-opacity:1;fill-rule:nonzero;stroke:none"
             id="path40"
             d="m 0,0 c 0,0 1.414,-1.414 0,-2.828 -1.414,-1.414 -2.828,0 -2.828,0 l -1.414,1.414 c 0,0 -1.414,1.414 0,2.828 1.414,1.414 2.828,0 2.828,0 L 0,0 z" /></g><g
           id="g42"
           transform="translate(30.708,26.8789)"><path
             style="fill:#ffac33;fill-opacity:1;fill-rule:nonzero;stroke:none"
             id="path44"
             d="m 0,0 c 0,0 -1.414,-1.414 -2.828,0 -1.414,1.414 0,2.828 0,2.828 l 1.414,1.414 c 0,0 1.414,1.414 2.828,0 1.414,-1.414 0,-2.828 0,-2.828 L 0,0 z" /></g><g
           id="g46"
           transform="translate(9.708,5.8789)"><path
             style="fill:#ffac33;fill-opacity:1;fill-rule:nonzero;stroke:none"
             id="path48"
             d="m 0,0 c 0,0 -1.414,-1.414 -2.828,0 -1.414,1.414 0,2.828 0,2.828 l 1.414,1.414 c 0,0 1.414,1.414 2.828,0 1.414,-1.414 0,-2.828 0,-2.828 L 0,0 z" /></g><g
           id="g50"
           transform="translate(17,5)"><path
             style="fill:#ffac33;fill-opacity:1;fill-rule:nonzero;stroke:none"
             id="path52"
             d="M 0,0 C 0,0 0,2 2,2 4,2 4,0 4,0 l 0,-2 c 0,0 0,-2 -2,-2 -2,0 -2,2 -2,2 l 0,2 z" /></g><g
           id="g54"
           transform="translate(29,19)"><path
             style="fill:#ffac33;fill-opacity:1;fill-rule:nonzero;stroke:none"
             id="path56"
             d="m 0,0 c 0,5.523 -4.478,10 -10,10 -5.523,0 -10,-4.477 -10,-10 0,-5.522 4.477,-10 10,-10 5.522,0 10,4.478 10,10" /></g></g></g></g></svg>