<?xml version="1.0" encoding="UTF-8" standalone="no"?>
<!-- Created with Inkscape (http://www.inkscape.org/) -->

<svg
   xmlns:dc="http://purl.org/dc/elements/1.1/"
   xmlns:cc="http://creativecommons.org/ns#"
   xmlns:rdf="http://www.w3.org/1999/02/22-rdf-syntax-ns#"
   xmlns:svg="http://www.w3.org/2000/svg"
   xmlns="http://www.w3.org/2000/svg"
   xmlns:sodipodi="http://sodipodi.sourceforge.net/DTD/sodipodi-0.dtd"
   xmlns:inkscape="http://www.inkscape.org/namespaces/inkscape"
   width="171.63487"
   height="254.24117"
   viewBox="0 0 171.63487 254.24116"
   id="svg2"
   version="1.1"
   inkscape:version="0.91 r13725"
   sodipodi:docname="balloon.svg">
  <defs
     id="defs4" />
  <sodipodi:namedview
     id="base"
     pagecolor="#ffffff"
     bordercolor="#666666"
     borderopacity="1.0"
     inkscape:pageopacity="0.0"
     inkscape:pageshadow="2"
     inkscape:zoom="0.24748737"
     inkscape:cx="-694.95002"
     inkscape:cy="-259.57647"
     inkscape:document-units="px"
     inkscape:current-layer="layer2"
     showgrid="false"
     inkscape:window-width="1366"
     inkscape:window-height="705"
     inkscape:window-x="1358"
     inkscape:window-y="-8"
     inkscape:window-maximized="1"
     showguides="false"
     fit-margin-top="0"
     fit-margin-left="0"
     fit-margin-right="0"
     fit-margin-bottom="0"
     units="px" />
  <metadata
     id="metadata7">
    <rdf:RDF>
      <cc:Work
         rdf:about="">
        <dc:format>image/svg+xml</dc:format>
        <dc:type
           rdf:resource="http://purl.org/dc/dcmitype/StillImage" />
        <dc:title></dc:title>
      </cc:Work>
    </rdf:RDF>
  </metadata>
  <g
     inkscape:groupmode="layer"
     id="layer2"
     inkscape:label="Layer 2"
     transform="translate(-526.11162,-203.42735)">
    <path
       style="fill:none;fill-rule:evenodd;stroke:#000000;stroke-width:1.07974923px;stroke-linecap:butt;stroke-linejoin:miter;stroke-opacity:1"
       d="m 600.75031,423.84197 0.25004,15.46355"
       id="path4275"
       inkscape:connector-curvature="0" />
    <path
       style="fill:none;fill-rule:evenodd;stroke:#000000;stroke-width:1.0305469px;stroke-linecap:butt;stroke-linejoin:miter;stroke-opacity:1"
       d="m 623.98257,423.34196 0,15.28753"
       id="path4277"
       inkscape:connector-curvature="0" />
    <path
       style="fill:#aa382a;fill-opacity:1"
       d="m 599.6356,437.77399 c -1.13682,0.1337 -1.64469,0.70134 -2.55078,1.82031 -1.37488,1.69791 -1.85937,3.94615 -1.85937,8.62891 0,5.41022 0.32383,6.55869 2.22265,7.88867 1.73146,1.21276 5.05878,1.55664 15.06445,1.55664 7.06378,0 13.71546,-0.4658 14.7793,-1.03515 1.6627,-0.88985 1.9336,-2.14851 1.9336,-8.96485 -10e-6,-9.85001 -0.9038,-10.64992 -10.14258,-8.97461 -4.65165,0.8435 -7.79826,0.81006 -13.12891,-0.14258 -3.4166,-0.61058 -5.18154,-0.91104 -6.31836,-0.77734 z"
       id="path4259"
       inkscape:connector-curvature="0" />
    <path
       style="fill:#dd5e55"
       d="m 601.90318,390.72516 c 1.55561,-0.33925 2.82604,-0.71599 4.74805,-0.95312 0.74398,-0.0918 1.58208,-0.10507 2.36718,-0.16797 -1.15877,-0.95395 -1.81377,-2.6909 -2.24023,-5.71875 -1.49053,-10.58268 -4.78132,-26.18188 -9.47461,-44.91406 -9.51544,-37.97875 -11.66882,-54.53813 -10.76758,-82.80274 0.77087,-24.176 3.8741,-35.85279 12.27735,-46.20703 l 2.60156,-3.20703 -2.68555,-0.67383 c -6.35804,-1.59577 -18.71154,5.0541 -23.38476,12.58789 -9.01097,14.52675 -12.36479,41.66688 -8.17579,66.16992 2.39164,13.98961 5.32529,23.43406 14.08399,45.33008 7.94441,19.86039 19.91964,53.56619 20.69531,58.25 0.17596,1.06254 0.10612,1.75926 -0.0449,2.30664 z"
       id="path4255"
       inkscape:connector-curvature="0" />
    <path
       style="fill:#dd5e55"
       d="m 596.20982,395.40094 c -0.57926,-1.15066 -0.54034,-1.2448 -1.38867,-2.85937 0,0 1.23967,-0.48047 3.33789,-1.06641 0.43046,-0.12021 1.24266,-0.2237 1.74219,-0.34961 -0.94556,-0.5989 -2.04325,-1.69331 -3.23047,-3.70703 -8.175,-13.86606 -33.26518,-58.42566 -36.45899,-64.75 -18.12175,-35.88444 -21.52755,-66.85337 -9.96484,-90.62304 3.45012,-7.09249 3.50417,-7.37696 1.39844,-7.37696 -0.869,0 -4.26615,2.68607 -7.54883,5.96875 -6.9715,6.9715 -13.67595,20.0457 -16.27149,31.72852 -3.68233,16.57457 -1.38285,34.84777 6.44922,51.23047 5.52204,11.55068 11.3245,19.36506 24.96875,33.63086 13.48437,14.09864 30.17056,36.14575 36.9668,48.17382 z"
       id="path4253"
       inkscape:connector-curvature="0" />
    <path
       style="fill:#dd5e55"
       d="m 624.67076,391.18415 c 1.75593,0.5707 3.49892,1.2611 5.18164,2.1875 8.02031,-14.34774 23.51451,-34.76078 35.80664,-46.70313 14.86389,-14.44091 25.85211,-31.88535 30.26758,-48.05273 2.45601,-8.99286 2.41923,-29.96739 -0.0684,-38.94727 -2.4868,-8.97706 -8.82226,-21.56362 -13.73047,-27.27734 -3.82697,-4.45504 -9.50684,-8.45215 -10.54102,-7.41797 -0.24923,0.24923 0.90595,3.13094 2.56836,6.40234 5.17147,10.17679 6.57283,17.17507 6.46289,32.29297 -0.0847,11.64705 -0.51738,15.0999 -3.15429,25.16211 -4.15606,15.85916 -10.73199,30.79124 -22.53711,51.18555 -5.46029,9.43311 -13.95852,24.35234 -18.88672,33.15234 -7.18253,12.82539 -9.80009,17.17022 -11.36914,18.01563 z"
       id="path4249"
       inkscape:connector-curvature="0" />
    <path
       style="fill:#c5664f;fill-opacity:1"
       d="m 623.06529,390.72321 c -1.67999,-0.45148 -3.36847,-0.84282 -5.04102,-1.04492 -0.6858,-0.0829 -1.33756,-0.0523 -2.01562,-0.0996 -0.59314,0.61364 -1.30654,0.78408 -2.59961,0.9082 -2.04629,0.19642 -3.3967,-0.0646 -4.39063,-0.88281 -0.7851,0.0629 -1.6232,0.0762 -2.36718,0.16797 -1.92201,0.23713 -3.19244,0.61387 -4.74805,0.95312 -0.27245,0.98741 -1.02059,1.02198 -2.00195,0.40039 -0.49953,0.12591 -1.31173,0.2294 -1.74219,0.34961 -2.09822,0.58594 -3.33789,1.06641 -3.33789,1.06641 0.84833,1.61457 0.80941,1.70871 1.38867,2.85937 1.24298,2.19984 2.17815,4.07612 2.66602,5.48243 0.0758,0.18597 0.41743,0.82488 0.47851,0.98632 0.57784,1.52734 0.54632,2.04783 0.87891,3.28907 1.64202,-0.43998 3.23889,-0.77156 4.77734,-1.01563 1.53845,-0.24406 3.018,-0.39986 4.42383,-0.48828 2.81166,-0.17683 5.32869,-0.0831 7.43555,0.12109 2.10685,0.20421 3.80302,0.51811 4.97265,0.78125 0.8663,0.19491 1.10255,0.28006 1.34375,0.35352 l 0.53907,-0.01 4,-7.91601 c 0.54026,-1.06928 1.47851,-2.45328 2.12695,-3.61328 -1.68272,-0.9264 -3.42571,-1.6168 -5.18164,-2.1875 -0.59612,0.32119 -1.08074,0.24933 -1.54883,-0.21875 -0.0483,-0.0483 -0.0151,-0.18753 -0.0566,-0.24219 z"
       id="path4247"
       inkscape:connector-curvature="0" />
    <path
       style="fill:#dd5e55"
       d="m 626.84654,205.84626 c -1.03135,0.0243 -1.76072,0.24076 -2.0332,0.68164 -0.35706,0.57773 0.89808,3.20823 2.79101,5.8457 6.34966,8.84718 9.28639,19.52489 10.50391,38.19531 1.73853,26.65977 -1.29949,50.97944 -11.37891,91.07422 -2.97616,11.83884 -6.12626,25.80039 -7,31.02539 -2.07262,12.39435 -2.6176,15.76893 -3.7207,16.91016 0.67806,0.0473 1.32982,0.0167 2.01562,0.0996 1.67255,0.2021 3.36103,0.59344 5.04102,1.04492 -0.66558,-0.87616 -0.5305,-2.51213 0.66797,-6.21484 5.33399,-16.47944 12.39117,-36.01864 19.84765,-54.94727 12.22006,-31.02121 15.63872,-45.31445 15.63672,-65.39258 -0.002,-27.54484 -7.00608,-47.37734 -19.17968,-54.30469 -4.29184,-2.44225 -10.09735,-4.09046 -13.19141,-4.01757 z"
       id="path4137"
       inkscape:connector-curvature="0" />
    <path
       style="fill:#f4f1ea;fill-opacity:1;fill-rule:evenodd;stroke:none;stroke-width:1px;stroke-linecap:butt;stroke-linejoin:miter;stroke-opacity:1"
       d="m 553.86804,226.16821 c 0,0 10.53571,-14.46428 27.5,-14.10714 -21.73309,24.058 -18.91958,72.6207 -6.068,103.48235 12.82012,30.78612 23.51663,65.05737 26.7467,73.18829 1.78597,4.49573 -2.18962,2.543 -2.91177,1.50797 -1.86944,-2.67934 -1.44296,-1.92861 -1.44296,-1.92861 0,0 -25.60969,-38.57143 -41.68111,-75 -16.07143,-36.42857 -16.42858,-69.28571 -2.14286,-87.14286 z"
       id="path4171"
       inkscape:connector-curvature="0"
       sodipodi:nodetypes="ccssscsc" />
    <path
       style="fill:#f4f1ea;fill-opacity:1;fill-rule:evenodd;stroke:none;stroke-width:1px;stroke-linecap:butt;stroke-linejoin:miter;stroke-opacity:1"
       d="m 671.51354,224.43453 c 0,0 -12.68228,-14.08547 -29.64657,-13.72833 21.73309,24.058 19.92973,72.6207 7.07815,103.48236 -12.82012,30.78612 -23.26409,65.56245 -26.49416,73.69337 -1.78597,4.49573 2.56843,4.05823 3.29058,3.0232 1.86944,-2.67934 1.8849,-3.19131 1.8849,-3.19131 0,0 26.05163,-37.81381 42.12305,-74.24238 16.07143,-36.42858 16.04977,-71.17976 1.76405,-89.03691 z"
       id="path4171-6"
       inkscape:connector-curvature="0"
       sodipodi:nodetypes="ccssscsc" />
    <path
       style="fill:#f4f1ea;fill-opacity:1;fill-rule:evenodd;stroke:none;stroke-width:1px;stroke-linecap:butt;stroke-linejoin:miter;stroke-opacity:1"
       d="m 607.39482,386.34679 c 0,0 -16.01838,-58.06378 -21.06914,-99.48003 -5.05076,-41.41625 2.79586,-71.11115 15.17023,-80.20253 0.97632,-0.56367 9.84899,-7.07106 23.04411,0.12627 1.17641,0.96747 28.00863,30.78646 6.11373,117.592 0.71429,0 -13.57143,53.75 -13.39285,62.32143 0,0 -0.49108,3.70536 -2.09822,3.61607 0.33103,0.19112 -3.39286,0.22321 -3.39286,0.22321 0,0 -2.8125,0.3125 -3.70535,-2.00892 -0.21942,-0.0588 -0.66965,-2.1875 -0.66965,-2.1875 z"
       id="path4188"
       inkscape:connector-curvature="0"
       sodipodi:nodetypes="cscccccccc" />
    <path
       style="fill:none;fill-rule:evenodd;stroke:#000000;stroke-width:1px;stroke-linecap:butt;stroke-linejoin:miter;stroke-opacity:1"
       d="m 607.06252,422.33181 -0.25254,-19.1929"
       id="path4267"
       inkscape:connector-curvature="0" />
    <path
       style="fill:none;fill-rule:evenodd;stroke:#000000;stroke-width:1px;stroke-linecap:butt;stroke-linejoin:miter;stroke-opacity:1"
       d="m 612.49209,402.63383 0,19.57171"
       id="path4269"
       inkscape:connector-curvature="0" />
    <path
       style="fill:none;fill-rule:evenodd;stroke:#000000;stroke-width:1px;stroke-linecap:butt;stroke-linejoin:miter;stroke-opacity:1"
       d="m 617.54285,403.01264 0.12627,19.31917"
       id="path4271"
       inkscape:connector-curvature="0" />
    <path
       style="fill:none;fill-rule:evenodd;stroke:#000000;stroke-width:1px;stroke-linecap:butt;stroke-linejoin:miter;stroke-opacity:1"
       d="m 622.46734,403.89652 0.12627,19.31917"
       id="path4273"
       inkscape:connector-curvature="0" />
    <path
       style="fill:#a25043;fill-opacity:1;fill-rule:evenodd;stroke:none;stroke-width:1px;stroke-linecap:butt;stroke-linejoin:miter;stroke-opacity:1"
       d="m 599.59821,402.18363 c 0,0 10.22322,-4.28572 25.53572,0 -1.39503,2.41626 -1.51786,2.90178 -1.51786,2.90178 0,0 -10.72653,-3.39393 -23.39286,0 -0.50901,-1.89966 -0.39853,-2.25672 -0.76288,-2.84711 0.14512,-0.0838 0.13788,-0.0547 0.13788,-0.0547 z"
       id="path4261"
       inkscape:connector-curvature="0" />
    <path
       style="fill:none;fill-rule:evenodd;stroke:#000000;stroke-width:1px;stroke-linecap:butt;stroke-linejoin:miter;stroke-opacity:1"
       d="m 601.0016,404.90668 1.38896,18.18274 0,0"
       id="path4265"
       inkscape:connector-curvature="0" />
    <path
       style="fill:#bc6a59;fill-opacity:1;fill-rule:evenodd;stroke:none;stroke-width:1px;stroke-linecap:butt;stroke-linejoin:miter;stroke-opacity:1"
       d="m 600.49653,422.20554 c 0,0 8.39689,-4.41942 23.35977,-0.69448 -0.1894,0 3.53554,1.38896 0.12627,2.58851 -0.11358,0.19673 -13.70019,-2.14657 -23.0441,0.75762 -0.11472,-0.42812 -2.60318,-0.86867 -0.44194,-2.65165 z"
       id="path4279"
       inkscape:connector-curvature="0"
       sodipodi:nodetypes="ccccc" />
    <path
       style="fill:none;fill-rule:evenodd;stroke:#7f3b25;stroke-width:1px;stroke-linecap:butt;stroke-linejoin:miter;stroke-opacity:1"
       d="m 595.53571,443.79077 33.39286,0"
       id="path4281"
       inkscape:connector-curvature="0" />
    <path
       style="fill:#f08e5f;fill-opacity:1;fill-rule:evenodd;stroke:none;stroke-width:1px;stroke-linecap:butt;stroke-linejoin:miter;stroke-opacity:1"
       d="m 600.22905,443.41577 c 0,0 -5.36958,6.41837 0,7.85714 0.0893,0 6.16071,-0.26785 0,-7.85714 z"
       id="path4285"
       inkscape:connector-curvature="0" />
    <path
       style="fill:#f08e5f;fill-opacity:1;fill-rule:evenodd;stroke:none;stroke-width:1px;stroke-linecap:butt;stroke-linejoin:miter;stroke-opacity:1"
       d="m 607.9897,443.2372 c 0,0 -5.36958,6.41837 0,7.85714 0.0893,0 6.16071,-0.26785 0,-7.85714 z"
       id="path4285-9"
       inkscape:connector-curvature="0" />
    <path
       style="fill:#f08e5f;fill-opacity:1;fill-rule:evenodd;stroke:none;stroke-width:1px;stroke-linecap:butt;stroke-linejoin:miter;stroke-opacity:1"
       d="m 616.29326,443.2372 c 0,0 -5.36958,6.41837 0,7.85714 0.0893,0 6.16071,-0.26785 0,-7.85714 z"
       id="path4285-8"
       inkscape:connector-curvature="0" />
    <path
       style="fill:#f08e5f;fill-opacity:1;fill-rule:evenodd;stroke:none;stroke-width:1px;stroke-linecap:butt;stroke-linejoin:miter;stroke-opacity:1"
       d="m 623.43613,443.05863 c 0,0 -5.36958,6.41837 0,7.85714 0.0893,0 6.16071,-0.26785 0,-7.85714 z"
       id="path4285-3"
       inkscape:connector-curvature="0" />
  </g>
</svg>
